<svg width="668" height="483" fill="none" xmlns="http://www.w3.org/2000/svg"><g filter="url(#filter0_dd)"><rect x="9" y="7" width="650" height="465" rx="4" fill="#fff"/><rect x="8.5" y="6.5" width="651" height="466" rx="4.5" stroke="#000" stroke-opacity=".05"/></g><g opacity=".5" fill="#E9EBF0"><path d="M54 424h585v1H54zM54 336h585v1H54zM54 248h585v1H54zM54 160h585v1H54zM54 72h585v1H54z"/></g><path d="M32.678 76.132c1.562 0 2.76-1.078 2.76-2.563 0-1.463-1.231-2.387-2.661-2.387-1.122 0-1.771.561-2.19 1.177v-.033c0-1.969.87-3.366 2.256-3.366.704 0 1.243.275 1.815.759l.506-.671c-.671-.55-1.353-.88-2.277-.88-2.013 0-3.201 1.837-3.201 4.18 0 2.739 1.265 3.784 2.992 3.784zm.01-.77c-1.132 0-1.946-.748-1.946-1.727 0-.88.77-1.705 1.925-1.705 1.11 0 1.88.704 1.88 1.65 0 1.001-.725 1.782-1.858 1.782zm7.376.77c1.98 0 3.256-1.826 3.256-3.982 0-2.178-1.254-3.982-3.234-3.982s-3.267 1.826-3.267 3.982c0 2.178 1.254 3.982 3.245 3.982zm.022-.792c-1.441 0-2.365-1.507-2.365-3.19 0-1.716.902-3.19 2.343-3.19 1.43 0 2.354 1.507 2.354 3.19 0 1.705-.891 3.19-2.332 3.19zM32.812 252.132c1.43 0 2.574-.946 2.574-2.321 0-1.43-1.2-2.079-2.541-2.189l2.42-2.684v-.638h-4.917v.781h3.762l-2.431 2.739.176.517h.495c1.265 0 2.156.528 2.156 1.485 0 .924-.748 1.518-1.683 1.518-.946 0-1.661-.418-2.255-1.144l-.627.561c.627.814 1.584 1.375 2.87 1.375zm7.252 0c1.98 0 3.256-1.826 3.256-3.982 0-2.178-1.254-3.982-3.234-3.982s-3.267 1.826-3.267 3.982c0 2.178 1.254 3.982 3.245 3.982zm.022-.792c-1.441 0-2.365-1.507-2.365-3.19 0-1.716.902-3.19 2.343-3.19 1.43 0 2.354 1.507 2.354 3.19 0 1.705-.891 3.19-2.332 3.19zM40.064 428.132c1.98 0 3.256-1.826 3.256-3.982 0-2.178-1.254-3.982-3.234-3.982s-3.267 1.826-3.267 3.982c0 2.178 1.254 3.982 3.245 3.982zm.022-.792c-1.441 0-2.365-1.507-2.365-3.19 0-1.716.902-3.19 2.343-3.19 1.43 0 2.354 1.507 2.354 3.19 0 1.705-.891 3.19-2.332 3.19z" fill="#7C828D"/><path d="M34.36 39.16c2.352 0 4-1.248 4-3.344 0-1.888-1.232-2.736-3.6-3.312-2.144-.512-2.656-.896-2.656-1.76 0-.768.672-1.36 1.824-1.36 1.024 0 2.032.4 3.04 1.152l1.056-1.488c-1.136-.912-2.432-1.408-4.064-1.408-2.224 0-3.824 1.328-3.824 3.248 0 2.096 1.344 2.8 3.728 3.36 2.08.496 2.528.928 2.528 1.728 0 .88-.768 1.44-1.984 1.44-1.392 0-2.464-.528-3.536-1.456l-1.184 1.408a6.9 6.9 0 004.672 1.792zm6.09 2.4h1.936v-3.872c.592.784 1.472 1.488 2.864 1.488 2.016 0 3.936-1.584 3.936-4.384 0-2.832-1.936-4.416-3.936-4.416-1.36 0-2.24.704-2.864 1.584v-1.408H40.45V41.56zm4.352-4.064c-1.312 0-2.464-1.072-2.464-2.704 0-1.648 1.152-2.736 2.464-2.736s2.416 1.072 2.416 2.704c0 1.696-1.088 2.736-2.416 2.736zM51.17 39h1.936v-3.216c0-2.24 1.184-3.344 2.88-3.344h.112v-2.048c-1.488-.064-2.464.8-2.992 2.064v-1.904H51.17V39zm6.642-9.744h2.08v-1.84h-2.08v1.84zM57.89 39h1.936v-8.448H57.89V39zm4.466 0h1.936v-4.768c0-1.312.784-2.096 1.904-2.096 1.152 0 1.808.752 1.808 2.064V39h1.936v-5.376c0-1.968-1.104-3.248-3.008-3.248-1.312 0-2.096.688-2.64 1.488v-1.312h-1.936V39zm12.754.144c.72 0 1.263-.16 1.743-.432v-1.584a2.602 2.602 0 01-1.2.288c-.655 0-1.04-.304-1.04-1.056v-4.144h2.272v-1.664h-2.271v-2.32h-1.936v2.32h-1.073v1.664h1.073v4.448c0 1.856 1.007 2.48 2.431 2.48zm6.626.016c1.76 0 3.136-.88 3.136-2.656 0-1.552-1.392-2.112-2.624-2.496-.048-.016-.112-.032-.16-.048-.928-.304-1.744-.56-1.744-1.136 0-.528.432-.88 1.184-.88.704 0 1.568.304 2.384.8l.768-1.376c-.896-.592-2.048-.96-3.104-.96-1.68 0-3.008.976-3.008 2.576 0 1.648 1.392 2.16 2.64 2.528l.144.048c.928.272 1.744.496 1.744 1.12 0 .592-.48.944-1.312.944-.864 0-1.856-.352-2.768-1.04l-.864 1.312c1.056.832 2.384 1.264 3.584 1.264z" fill="#292D34"/><path d="M107.253 450.055h.726l2.123-6.248 2.112 6.248h.737l2.75-7.755h-.913l-2.2 6.413-2.112-6.435h-.715l-2.112 6.435-2.2-6.413h-.946l2.75 7.755zm9.669-2.552h4.51c.011-.132.011-.22.011-.297 0-1.672-.968-3.014-2.651-3.014-1.573 0-2.728 1.32-2.728 2.97 0 1.771 1.276 2.97 2.838 2.97 1.078 0 1.771-.429 2.343-1.067l-.528-.473c-.462.484-1.012.803-1.793.803-1.001 0-1.881-.693-2.002-1.892zm0-.682c.121-1.1.869-1.914 1.848-1.914 1.122 0 1.716.88 1.815 1.914h-3.663zm6.509.682h4.51c.011-.132.011-.22.011-.297 0-1.672-.968-3.014-2.651-3.014-1.573 0-2.728 1.32-2.728 2.97 0 1.771 1.276 2.97 2.838 2.97 1.078 0 1.771-.429 2.343-1.067l-.528-.473c-.462.484-1.012.803-1.793.803-1.001 0-1.881-.693-2.002-1.892zm0-.682c.121-1.1.869-1.914 1.848-1.914 1.122 0 1.716.88 1.815 1.914h-3.663zm6.004 3.179h.847v-1.485l1.155-1.166 2.035 2.651h1.012l-2.464-3.245 2.387-2.442h-1.056l-3.069 3.201v-5.544h-.847V450zm10.584 0h.858v-7.755h-.638l-1.881.649.209.704 1.452-.451V450zM195.432 450.055h.726l2.123-6.248 2.112 6.248h.737l2.75-7.755h-.913l-2.2 6.413-2.112-6.435h-.715l-2.112 6.435-2.2-6.413h-.946l2.75 7.755zm9.668-2.552h4.51c.011-.132.011-.22.011-.297 0-1.672-.968-3.014-2.651-3.014-1.573 0-2.728 1.32-2.728 2.97 0 1.771 1.276 2.97 2.838 2.97 1.078 0 1.771-.429 2.343-1.067l-.528-.473c-.462.484-1.012.803-1.793.803-1.001 0-1.881-.693-2.002-1.892zm0-.682c.121-1.1.869-1.914 1.848-1.914 1.122 0 1.716.88 1.815 1.914H205.1zm6.51.682h4.51c.011-.132.011-.22.011-.297 0-1.672-.968-3.014-2.651-3.014-1.573 0-2.728 1.32-2.728 2.97 0 1.771 1.276 2.97 2.838 2.97 1.078 0 1.771-.429 2.343-1.067l-.528-.473c-.462.484-1.012.803-1.793.803-1.001 0-1.881-.693-2.002-1.892zm0-.682c.121-1.1.869-1.914 1.848-1.914 1.122 0 1.716.88 1.815 1.914h-3.663zm6.004 3.179h.847v-1.485l1.155-1.166 2.035 2.651h1.012l-2.464-3.245 2.387-2.442h-1.056l-3.069 3.201v-5.544h-.847V450zm9.143 0h5.379v-.792h-4.081l2.057-1.826c1.342-1.188 1.947-1.87 1.947-2.992 0-1.276-1.001-2.2-2.387-2.2-1.353 0-2.079.605-2.772 1.639l.638.462c.616-.858 1.188-1.32 2.068-1.32.836 0 1.551.572 1.551 1.474 0 .77-.418 1.375-1.606 2.42l-2.794 2.464V450zM284.351 450.055h.726l2.123-6.248 2.112 6.248h.737l2.75-7.755h-.913l-2.2 6.413-2.112-6.435h-.715l-2.112 6.435-2.2-6.413h-.946l2.75 7.755zm9.669-2.552h4.51c.011-.132.011-.22.011-.297 0-1.672-.968-3.014-2.651-3.014-1.573 0-2.728 1.32-2.728 2.97 0 1.771 1.276 2.97 2.838 2.97 1.078 0 1.771-.429 2.343-1.067l-.528-.473c-.462.484-1.012.803-1.793.803-1.001 0-1.881-.693-2.002-1.892zm0-.682c.121-1.1.869-1.914 1.848-1.914 1.122 0 1.716.88 1.815 1.914h-3.663zm6.51.682h4.51c.011-.132.011-.22.011-.297 0-1.672-.968-3.014-2.651-3.014-1.573 0-2.728 1.32-2.728 2.97 0 1.771 1.276 2.97 2.838 2.97 1.078 0 1.771-.429 2.343-1.067l-.528-.473c-.462.484-1.012.803-1.793.803-1.001 0-1.881-.693-2.002-1.892zm0-.682c.121-1.1.869-1.914 1.848-1.914 1.122 0 1.716.88 1.815 1.914h-3.663zm6.003 3.179h.847v-1.485l1.155-1.166L310.57 450h1.012l-2.464-3.245 2.387-2.442h-1.056l-3.069 3.201v-5.544h-.847V450zm12.036.132c1.43 0 2.574-.946 2.574-2.321 0-1.43-1.199-2.079-2.541-2.189l2.42-2.684v-.638h-4.917v.781h3.762l-2.431 2.739.176.517h.495c1.265 0 2.156.528 2.156 1.485 0 .924-.748 1.518-1.683 1.518-.946 0-1.661-.418-2.255-1.144l-.627.561c.627.814 1.584 1.375 2.871 1.375zM372.534 450.055h.726l2.123-6.248 2.112 6.248h.737l2.75-7.755h-.913l-2.2 6.413-2.112-6.435h-.715l-2.112 6.435-2.2-6.413h-.946l2.75 7.755zm9.669-2.552h4.51c.011-.132.011-.22.011-.297 0-1.672-.968-3.014-2.651-3.014-1.573 0-2.728 1.32-2.728 2.97 0 1.771 1.276 2.97 2.838 2.97 1.078 0 1.771-.429 2.343-1.067l-.528-.473c-.462.484-1.012.803-1.793.803-1.001 0-1.881-.693-2.002-1.892zm0-.682c.121-1.1.869-1.914 1.848-1.914 1.122 0 1.716.88 1.815 1.914h-3.663zm6.51.682h4.51c.011-.132.011-.22.011-.297 0-1.672-.968-3.014-2.651-3.014-1.573 0-2.728 1.32-2.728 2.97 0 1.771 1.276 2.97 2.838 2.97 1.078 0 1.771-.429 2.343-1.067l-.528-.473c-.462.484-1.012.803-1.793.803-1.001 0-1.881-.693-2.002-1.892zm0-.682c.121-1.1.869-1.914 1.848-1.914 1.122 0 1.716.88 1.815 1.914h-3.663zm6.004 3.179h.847v-1.485l1.155-1.166 2.035 2.651h1.012l-2.464-3.245 2.387-2.442h-1.056l-3.069 3.201v-5.544h-.847V450zm13.366 0h.836v-1.826h1.199v-.726h-1.199v-5.203h-.759l-4.356 5.302.22.627h4.059V450zm-3.234-2.552l3.234-3.971v3.971h-3.234zM462.356 450.055h.726l2.123-6.248 2.112 6.248h.737l2.75-7.755h-.913l-2.2 6.413-2.112-6.435h-.715l-2.112 6.435-2.2-6.413h-.946l2.75 7.755zm9.669-2.552h4.51c.011-.132.011-.22.011-.297 0-1.672-.968-3.014-2.651-3.014-1.573 0-2.728 1.32-2.728 2.97 0 1.771 1.276 2.97 2.838 2.97 1.078 0 1.771-.429 2.343-1.067l-.528-.473c-.462.484-1.012.803-1.793.803-1.001 0-1.881-.693-2.002-1.892zm0-.682c.121-1.1.869-1.914 1.848-1.914 1.122 0 1.716.88 1.815 1.914h-3.663zm6.51.682h4.51c.011-.132.011-.22.011-.297 0-1.672-.968-3.014-2.651-3.014-1.573 0-2.728 1.32-2.728 2.97 0 1.771 1.276 2.97 2.838 2.97 1.078 0 1.771-.429 2.343-1.067l-.528-.473c-.462.484-1.012.803-1.793.803-1.001 0-1.881-.693-2.002-1.892zm0-.682c.121-1.1.869-1.914 1.848-1.914 1.122 0 1.716.88 1.815 1.914h-3.663zm6.004 3.179h.847v-1.485l1.155-1.166 2.035 2.651h1.012l-2.464-3.245 2.387-2.442h-1.056l-3.069 3.201v-5.544h-.847V450zm11.947.132c1.606 0 2.75-1.023 2.75-2.53 0-1.485-1.166-2.376-2.662-2.376-.638 0-1.067.143-1.518.341l.165-2.464h3.674v-.803h-4.433l-.22 3.751.583.385c.451-.242.968-.44 1.617-.44 1.122 0 1.914.66 1.914 1.617 0 1.001-.759 1.727-1.859 1.727-.781 0-1.518-.407-2.189-1.056l-.572.627c.693.693 1.65 1.221 2.75 1.221zM544.177 450h.88v-6.897h2.585v-.803h-6.05v.803h2.585V450zm4.794 0h.847v-3.256c0-1.067.726-1.782 1.705-1.782 1.001 0 1.573.66 1.573 1.716V450h.847v-3.531c0-1.353-.803-2.277-2.178-2.277-.979 0-1.573.495-1.947 1.111v-3.333h-.847V450zm6.8-6.93h.968v-.935h-.968v.935zm.055 6.93h.847v-5.687h-.847V450zm4.694.11c1.133 0 2.024-.627 2.024-1.705 0-1.045-.946-1.386-1.826-1.65-.759-.231-1.463-.44-1.463-.979 0-.495.429-.847 1.1-.847.55 0 1.155.209 1.683.55l.385-.638a3.888 3.888 0 00-2.046-.627c-1.122 0-1.936.649-1.936 1.628 0 1.067.99 1.375 1.881 1.628.748.209 1.419.429 1.419 1.001 0 .572-.495.924-1.177.924-.671 0-1.353-.264-1.969-.726l-.429.605c.638.517 1.54.836 2.354.836zm8.402-.066h.748l1.54-4.488 1.529 4.488h.737l2.002-5.731h-.88l-1.496 4.565-1.54-4.587h-.704l-1.529 4.587-1.496-4.565h-.902l1.991 5.731zm8.195-2.541h4.51c.011-.132.011-.22.011-.297 0-1.672-.968-3.014-2.651-3.014-1.573 0-2.728 1.32-2.728 2.97 0 1.771 1.276 2.97 2.838 2.97 1.078 0 1.771-.429 2.343-1.067l-.528-.473c-.462.484-1.012.803-1.793.803-1.001 0-1.881-.693-2.002-1.892zm0-.682c.121-1.1.869-1.914 1.848-1.914 1.122 0 1.716.88 1.815 1.914h-3.663zm6.509.682h4.51c.011-.132.011-.22.011-.297 0-1.672-.968-3.014-2.651-3.014-1.573 0-2.728 1.32-2.728 2.97 0 1.771 1.276 2.97 2.838 2.97 1.078 0 1.771-.429 2.343-1.067l-.528-.473c-.462.484-1.012.803-1.793.803-1.001 0-1.881-.693-2.002-1.892zm0-.682c.121-1.1.869-1.914 1.848-1.914 1.122 0 1.716.88 1.815 1.914h-3.663zM589.63 450h.847v-1.485l1.155-1.166 2.035 2.651h1.012l-2.464-3.245 2.387-2.442h-1.056l-3.069 3.201v-5.544h-.847V450z" fill="#7C828D"/><path fill="#AC41ED" d="M125 134h18v291h-18zM214 221h18v204h-18zM303 240h18v185h-18zM392 160h18v265h-18zM481 134h18v291h-18zM570 274h18v151h-18z"/><path fill="#E9EBF0" d="M103 110h18v315h-18zM192 200h18v225h-18zM281 183h18v242h-18zM370 146h18v279h-18zM459 94h18v331h-18zM548 125h18v300h-18z"/><path opacity=".3" d="M55 193h586" stroke="#AC41ED" stroke-width="2" stroke-dasharray="3 3"/><path d="M572 6h39.111L660 54.889V94L572 6z" fill="#648CFB"/><path d="M594.829 17.816l3.837 3.838c1.82 1.82 3.756 2.281 5.231.806 1.107-1.106 1.072-2.224.496-3.514.899.253 1.89.23 2.8-.68.576-.576.841-1.21.841-1.948 0-.922-.472-1.901-1.394-2.823l-3.745-3.745-8.066 8.066zm6.533-3.076l1.706-1.706 1.751 1.752c.749.749.864 1.463.334 1.993-.622.622-1.371.38-2.155-.403l-1.636-1.636zm-3.249 3.25l1.774-1.775 2.051 2.05c.911.911.98 1.649.438 2.19-.622.622-1.371.427-2.155-.357l-2.108-2.109zM605.691 28.933c2.167 2.166 4.736 2.339 7.179-.104l4.552-4.552-1.775-1.774-4.621 4.62c-1.279 1.28-2.592 1.28-3.675.196-1.084-1.083-1.061-2.42.253-3.733l4.563-4.563-1.774-1.775-4.61 4.61c-2.373 2.373-2.258 4.908-.092 7.075zM613.226 36.444c1.74 1.74 3.86 2.063 5.462.461 1.429-1.429 1.095-2.938-.115-5.001-1.038-1.752-1.21-2.27-.68-2.8.415-.415 1.083-.369 1.763.31.68.68 1.083 1.683 1.302 2.893l2.258-.415c-.161-1.475-.795-2.846-1.97-4.021-1.648-1.648-3.791-1.855-5.255-.392-1.624 1.625-1.025 3.123.185 5.162 1.002 1.694 1.048 2.201.599 2.65-.496.496-1.222.346-1.947-.38-.922-.921-1.303-2.062-1.429-3.387l-2.305.207a7.258 7.258 0 002.132 4.713zM617.232 40.22l1.774 1.774 8.067-8.066-1.775-1.775-8.066 8.067zM620.331 43.319l1.751 1.751 5.128-5.128-1.221 9.035 1.509 1.51 8.067-8.067-1.752-1.752-4.966 4.967 1.186-8.746-1.636-1.637-8.066 8.067zM628.743 51.731l6.142 6.142 1.579-1.579-4.379-4.379 1.694-1.694 3.803 3.803 1.578-1.578-3.802-3.803 1.636-1.636 4.321 4.32 1.579-1.578-6.084-6.084-8.067 8.066zM638.526 61.744c1.74 1.74 3.86 2.063 5.462.46 1.428-1.428 1.094-2.938-.116-5-1.037-1.752-1.21-2.27-.68-2.8.415-.415 1.084-.37 1.764.31.679.68 1.083 1.683 1.302 2.893l2.258-.415c-.161-1.475-.795-2.846-1.97-4.021-1.648-1.648-3.791-1.856-5.255-.392-1.625 1.625-1.025 3.123.185 5.162 1.002 1.694 1.048 2.201.599 2.65-.496.496-1.222.346-1.948-.38-.922-.922-1.302-2.062-1.429-3.388l-2.304.208a7.253 7.253 0 002.132 4.713zM645.092 68.31c1.74 1.74 3.861 2.063 5.462.462 1.429-1.43 1.095-2.939-.115-5.001-1.037-1.752-1.21-2.27-.68-2.8.415-.415 1.084-.37 1.763.31.68.68 1.084 1.683 1.303 2.893l2.258-.415c-.161-1.475-.795-2.846-1.97-4.022-1.648-1.647-3.792-1.855-5.255-.391-1.625 1.624-1.026 3.123.184 5.162 1.003 1.694 1.049 2.201.6 2.65-.496.496-1.222.346-1.948-.38-.922-.922-1.302-2.063-1.429-3.388l-2.304.208a7.257 7.257 0 002.131 4.713z" fill="#fff"/><defs><filter id="filter0_dd" x="0" y="0" width="668" height="483" filterUnits="userSpaceOnUse" color-interpolation-filters="sRGB"><feFlood flood-opacity="0" result="BackgroundImageFix"/><feColorMatrix in="SourceAlpha" values="0 0 0 0 0 0 0 0 0 0 0 0 0 0 0 0 0 0 127 0"/><feOffset dy="1"/><feGaussianBlur stdDeviation="1"/><feColorMatrix values="0 0 0 0 0 0 0 0 0 0 0 0 0 0 0 0 0 0 0.03 0"/><feBlend in2="BackgroundImageFix" result="effect1_dropShadow"/><feColorMatrix in="SourceAlpha" values="0 0 0 0 0 0 0 0 0 0 0 0 0 0 0 0 0 0 127 0"/><feOffset dy="2"/><feGaussianBlur stdDeviation="4"/><feColorMatrix values="0 0 0 0 0 0 0 0 0 0 0 0 0 0 0 0 0 0 0.03 0"/><feBlend in2="effect1_dropShadow" result="effect2_dropShadow"/><feBlend in="SourceGraphic" in2="effect2_dropShadow" result="shape"/></filter></defs></svg>
