<svg id="visual" viewBox="0 0 900 600" width="900" height="600" xmlns="http://www.w3.org/2000/svg" xmlns:xlink="http://www.w3.org/1999/xlink" version="1.1"><rect x="0" y="0" width="900" height="600" fill="#002233"></rect><path d="M0 448L21.5 453.5C43 459 86 470 128.8 461.8C171.7 453.7 214.3 426.3 257.2 415.7C300 405 343 411 385.8 431.5C428.7 452 471.3 487 514.2 501.3C557 515.7 600 509.3 642.8 500.7C685.7 492 728.3 481 771.2 479.2C814 477.3 857 484.7 878.5 488.3L900 492L900 601L878.5 601C857 601 814 601 771.2 601C728.3 601 685.7 601 642.8 601C600 601 557 601 514.2 601C471.3 601 428.7 601 385.8 601C343 601 300 601 257.2 601C214.3 601 171.7 601 128.8 601C86 601 43 601 21.5 601L0 601Z" fill="#0066FF" stroke-linecap="round" stroke-linejoin="miter"></path></svg>
